PathFileType	4	(X/Y/Z)	C:/Users/opensim2020/Desktop/walking_exp_matlab/subject02_walking15_straight_03.trc																																																																																																																												
DataRate	CameraRate	NumFrames	NumMarkers	Units	OrigDataRate	OrigDataStartFrame	OrigNumFrames																																																																																																																								
100	100	4	42	mm	100	1342	103																																																																																																																								
Frame#	Time	LFHD			RFHD			LBHD			RBHD			C7			T10			CLAV			STRN			RBAK			LSHO			LUPA			LELB			LFRM			LWRA			LWRB			LFIN			RSHO			RUPA			RELB			RFRM			RWRA			RWRB			RFIN			LASI			RASI			LPSI			RPSI			LTHI			LKNE			LTIB			LANK			LHEE			LTOE			RTHI			RKNE			RTIB			RANK			RHEE			RTOE			*39			*40			*41		
		X1	Y1	Z1	X2	Y2	Z2	X3	Y3	Z3	X4	Y4	Z4	X5	Y5	Z5	X6	Y6	Z6	X7	Y7	Z7	X8	Y8	Z8	X9	Y9	Z9	X10	Y10	Z10	X11	Y11	Z11	X12	Y12	Z12	X13	Y13	Z13	X14	Y14	Z14	X15	Y15	Z15	X16	Y16	Z16	X17	Y17	Z17	X18	Y18	Z18	X19	Y19	Z19	X20	Y20	Z20	X21	Y21	Z21	X22	Y22	Z22	X23	Y23	Z23	X24	Y24	Z24	X25	Y25	Z25	X26	Y26	Z26	X27	Y27	Z27	X28	Y28	Z28	X29	Y29	Z29	X30	Y30	Z30	X31	Y31	Z31	X32	Y32	Z32	X33	Y33	Z33	X34	Y34	Z34	X35	Y35	Z35	X36	Y36	Z36	X37	Y37	Z37	X38	Y38	Z38	X39	Y39	Z39	X40	Y40	Z40	X41	Y41	Z41	X42	Y42	Z42
																																																																																																																															
65	0.64	129.80316	1695.89478	1385.79138	132.82831	1683.11584	1529.53003	-6.65059	1631.64746	1384.76147	-16.27347	1618.36096	1527.28638	-65.02594	1489.61792	1454.24634	-120.30067	1216.27686	1480.2655	71.92362	1419.97827	1450.31274	121.88463	1247.68042	1462.74683	-128.43231	1316.35205	1521.21191	10.25502	1457.54358	1279.07703	32.83212	1261.68457	1196.39697	68.21169	1121.1615	1181.26831	152.405	1016.12195	1198.76147	260.37943	958.99628	1262.70032	230.94577	926.66003	1227.39539	285.57721	891.61633	1238.56287	-1.47902	1461.87	1643.02051	-81.7089	1296.80212	1731.92407	-104.61473	1158.98572	1774.04663	-111.93187	1043.26648	1812.59912	-104.37117	904.66113	1810.80847	-148.4949	921.45801	1843.50122	-140.86659	846.52502	1847.69458	64.11935	938.5343	1340.90735	115.63099	948.28381	1593.12598	-121.15343	998.16736	1460.88281	-106.39188	1004.27942	1571.31995	-90.44698	645.28131	1338.23425	-175.65036	465.18848	1396.85156	-285.9711	305.71667	1421.68677	-337.35641	86.87839	1473.11084	-371.72925	68.08099	1529.5033	-191.10876	31.26256	1441.52356	113.10985	659.52753	1697.11792	192.661	468.17746	1658.83411	239.6328	289.50671	1676.97888	319.03128	108.21951	1653.33008	313.78296	43.07434	1599.52209	483.34357	122.74532	1655.04858	36.51888	1772.53394	1475.84009	2846.09985	1034.41211	-3357.49487	NaN	NaN	NaN
66	0.65	143.9061	1693.64417	1385.31128	147.36613	1681.07153	1529.09326	7.64687	1628.97729	1384.69885	-1.41641	1616.05127	1527.51636	-50.22641	1487.01013	1454.58337	-104.87743	1213.60571	1481.21777	87.01426	1417.6521	1450.44214	137.06758	1245.36267	1462.68347	-113.03442	1313.38806	1521.6167	24.79548	1454.92126	1279.32751	48.69639	1259.57239	1196.5968	85.74243	1119.46643	1181.3855	172.67033	1017.56018	1199.55725	282.65741	965.02765	1265.26233	254.53584	931.22662	1229.74902	310.5596	898.33795	1241.96802	13.64968	1459.52405	1643.10413	-67.17102	1295.23682	1732.17224	-90.94083	1158.00293	1774.76892	-100.30247	1042.62061	1814.05664	-93.5048	904.25665	1814.52368	-138.22087	921.80646	1845.81775	-130.93947	846.97003	1851.67175	78.80927	935.88141	1340.90662	132.26576	946.0495	1593.04993	-105.43069	995.71625	1462.60938	-89.64655	1002.14386	1573.16748	-78.18546	644.0257	1337.55005	-164.88121	465.11722	1396.08276	-278.64771	308.04343	1420.40442	-335.96893	90.4705	1471.59912	-370.66168	73.27368	1528.03809	-191.09967	31.26367	1441.04749	131.12257	658.44214	1696.73706	215.36798	468.98691	1657.59253	261.78546	289.3978	1675.99329	338.63062	107.53673	1650.94763	331.34653	41.97431	1597.45361	502.81512	120.27346	1648.49023	50.71762	1770.12463	1475.42273	2846.05469	1034.3595	-3357.62207	NaN	NaN	NaN
67	0.66	158.18994	1691.73938	1384.95667	161.94849	1679.27747	1528.56628	21.90598	1626.63647	1384.79395	13.14674	1613.82544	1527.3717	-35.31083	1484.36902	1454.85742	-89.29433	1211.22559	1482.41675	102.19846	1415.58594	1450.70337	152.73936	1243.46008	1462.85754	-97.43966	1310.89551	1522.48083	39.25495	1452.54785	1279.72253	63.64291	1257.71863	1196.62793	102.55093	1117.94739	1181.24731	192.73119	1019.18652	1200.72412	303.9343	970.98596	1267.50989	277.30923	935.82745	1232.01355	334.70319	905.52087	1245.23254	28.99803	1457.62866	1643.3584	-52.37176	1293.8501	1732.44861	-76.96997	1157.12463	1775.37854	-87.60744	1042.51135	1815.95483	-81.77724	904.06653	1818.34473	-127.17976	922.21997	1848.0188	-119.99249	847.63403	1855.69128	94.2467	933.45099	1341.08972	149.55965	944.40533	1592.83337	-89.23603	993.41101	1464.26257	-72.51912	1000.39594	1574.93201	-64.62097	643.16809	1337.47168	-153.08395	464.77023	1395.20483	-270.63095	310.53381	1419.11731	-334.15237	94.54639	1469.97876	-369.39804	78.57566	1526.05444	-191.41313	31.35489	1440.22058	153.09683	658.89526	1696.53882	238.49002	469.49918	1655.90417	283.00616	289.38348	1674.88184	354.64996	105.86767	1648.76147	344.78442	40.15212	1595.75134	518.62256	114.89268	1642.12061	65.07221	1768.12817	1475.29419	2846.08032	1034.31799	-3357.20361	NaN	NaN	NaN
68	0.67	172.25864	1689.76135	1384.42505	176.72758	1677.82922	1528.0343	36.30156	1624.56641	1384.92761	27.99643	1612.01025	1527.48804	-20.46386	1482.38879	1455.60071	-73.46121	1209.06165	1483.7522	117.40022	1413.89294	1450.96973	168.55186	1241.9259	1463.01099	-81.67157	1308.65051	1523.60071	53.61108	1450.46216	1280.23169	78.77156	1256.16846	1196.96545	118.86093	1116.5863	1180.79236	212.15948	1020.87329	1201.69653	324.27185	976.85602	1269.54175	299.01501	940.60413	1234.08496	357.49423	912.51807	1248.0072	44.34874	1455.97021	1643.49084	-37.44929	1292.59009	1732.62964	-62.53051	1156.10535	1775.91064	-74.28275	1042.40662	1817.67029	-69.15682	904.12811	1822.0752	-115.06408	922.81049	1850.33716	-107.93974	848.69196	1859.83936	110.35012	931.41132	1341.48022	167.46014	943.42761	1592.57324	-72.47935	991.28796	1465.88647	-54.99226	998.81641	1576.51001	-50.16749	641.94019	1337.21826	-140.42197	464.44238	1394.32971	-261.8999	313.35037	1417.99817	-331.87704	99.33556	1468.38855	-367.36911	85.35615	1524.62976	-191.2701	31.27561	1439.76245	177.34082	660.01959	1696.28113	261.75427	470.28375	1654.78589	302.09296	288.86758	1673.39258	368.02835	103.59268	1647.06763	355.55527	37.56076	1595.09827	531.31769	108.01073	1636.40125	79.28848	1766.17456	1474.68262	2845.32251	1034.24963	-3360.37061	NaN	NaN	NaN
